<?xml version="1.0" standalone="no"?>
<!DOCTYPE svg PUBLIC "-//W3C//DTD SVG 20010904//EN"
 "http://www.w3.org/TR/2001/REC-SVG-20010904/DTD/svg10.dtd">
<svg version="1.0" xmlns="http://www.w3.org/2000/svg"
 width="512.000000pt" height="512.000000pt" viewBox="0 0 512.000000 512.000000"
 preserveAspectRatio="xMidYMid meet">
<metadata>
Created by potrace 1.14, written by Peter Selinger 2001-2017
</metadata>
<g transform="translate(0.000000,512.000000) scale(0.100000,-0.100000)"
fill="#000000" stroke="none">
<path d="M423 5106 c-198 -48 -371 -227 -412 -424 -8 -38 -11 -656 -11 -2130
0 -1780 2 -2085 15 -2132 54 -204 231 -373 429 -409 85 -16 4164 -15 4238 0
206 43 390 230 427 433 16 85 15 4164 0 4238 -40 196 -209 371 -407 423 -50
13 -320 15 -2142 14 -1649 -1 -2096 -3 -2137 -13z"/>
</g>
</svg>
