<?xml version="1.0" standalone="no"?>
<!DOCTYPE svg PUBLIC "-//W3C//DTD SVG 20010904//EN"
 "http://www.w3.org/TR/2001/REC-SVG-20010904/DTD/svg10.dtd">
<svg version="1.0" xmlns="http://www.w3.org/2000/svg"
 width="512.000000pt" height="512.000000pt" viewBox="0 0 512.000000 512.000000"
 preserveAspectRatio="xMidYMid meet">
<metadata>
Created by potrace 1.14, written by Peter Selinger 2001-2017
</metadata>
<g transform="translate(0.000000,512.000000) scale(0.100000,-0.100000)"
fill="#000000" stroke="none">
<path d="M2067 4314 c-1 -1 -123 -5 -272 -9 -148 -3 -292 -8 -320 -10 -27 -1
-102 -6 -165 -9 -63 -4 -137 -9 -165 -11 -27 -2 -81 -7 -118 -10 -73 -6 -113
-10 -272 -30 -11 -1 -39 -5 -63 -9 -23 -4 -52 -9 -65 -10 -64 -7 -166 -52
-242 -105 -150 -107 -236 -259 -269 -476 -2 -16 -9 -59 -14 -95 -19 -120 -37
-299 -49 -505 -15 -245 -7 -1019 12 -1136 2 -13 6 -58 10 -99 6 -71 8 -92 20
-175 24 -169 45 -263 73 -335 48 -124 134 -229 246 -301 100 -65 188 -91 396
-114 30 -3 69 -8 85 -10 17 -2 64 -6 105 -9 446 -36 900 -50 1605 -50 621 0
1216 16 1415 39 19 2 69 7 110 10 41 3 91 8 110 10 19 3 58 7 85 10 111 13
238 46 310 81 129 63 248 190 301 324 26 64 52 188 74 350 6 41 13 89 15 105
2 17 7 64 10 105 4 41 8 91 10 110 20 197 28 906 12 1105 -13 163 -17 210 -22
245 -2 19 -7 60 -10 90 -12 107 -46 296 -65 368 -77 284 -293 452 -625 487
-33 3 -73 8 -90 10 -16 2 -66 6 -110 10 -44 3 -102 8 -130 10 -27 2 -108 7
-180 10 -71 4 -161 8 -200 10 -241 13 -1546 29 -1558 19z"/>
</g>
</svg>
