<?xml version="1.0" encoding="UTF-8" standalone="no"?>
<!-- Created with Inkscape (http://www.inkscape.org/) -->

<svg
   version="1.1"
   id="svg2"
   width="500"
   height="500"
   viewBox="0 0 500 500"
   sodipodi:docname="CC_20180727_210054-removebg-preview.svg"
   inkscape:export-filename="linktree.svg"
   inkscape:export-xdpi="96"
   inkscape:export-ydpi="96"
   inkscape:version="1.2.2 (732a01da63, 2022-12-09)"
   xml:space="preserve"
   xmlns:inkscape="http://www.inkscape.org/namespaces/inkscape"
   xmlns:sodipodi="http://sodipodi.sourceforge.net/DTD/sodipodi-0.dtd"
   xmlns="http://www.w3.org/2000/svg"
   xmlns:svg="http://www.w3.org/2000/svg"><defs
     id="defs6" /><sodipodi:namedview
     id="namedview4"
     pagecolor="#ffffff"
     bordercolor="#000000"
     borderopacity="0.25"
     inkscape:showpageshadow="2"
     inkscape:pageopacity="0.0"
     inkscape:pagecheckerboard="0"
     inkscape:deskcolor="#d1d1d1"
     showgrid="false"
     inkscape:zoom="0.21575"
     inkscape:cx="217.84473"
     inkscape:cy="305.90962"
     inkscape:window-width="1920"
     inkscape:window-height="1017"
     inkscape:window-x="-8"
     inkscape:window-y="-8"
     inkscape:window-maximized="1"
     inkscape:current-layer="g8" /><g
     inkscape:groupmode="layer"
     inkscape:label="Image"
     id="g8"><path
       style="fill:#111;fill-opacity:1;stroke-width:0.171066"
       d="m 195.51459,420.67147 c -1.333,-0.1769 -8.803,-2.9186 -14.04777,-5.1559 -31.56666,-13.4655 -58.33287,-35.68296 -77.35772,-64.21108 -16.01885,-24.0206 -25.86512,-51.87216 -28.502862,-80.62427 -0.54964,-5.99111 -0.6817,-9.26666 -0.67252,-16.67895 0.0116,-9.3409 0.38978,-15.14409 1.52734,-23.43608 5.225852,-38.09266 22.493852,-72.8626 49.695582,-100.06432 24.73606,-24.73606 56.00495,-41.405343 90.14249,-48.054513 25.62266,-4.99067 52.77861,-4.18509 77.66406,2.30392 41.7591,10.88892 77.6947,36.449693 101.7045,72.341983 15.1997,22.72209 24.7375,48.30306 28.1275,75.44019 0.9612,7.69403 1.2814,13.20782 1.2713,21.89649 -0.012,9.82103 -0.5513,17.33474 -1.8741,26.08759 -6.2911,41.62472 -27.1966,79.34159 -59.269,106.93071 -14.4001,12.38713 -31.1958,22.59703 -48.6625,29.58113 -4.14015,1.6554 -9.02028,3.4042 -10.0391,3.5974 -1.30974,0.2484 -4.04177,0.1992 -5.16333,-0.093 -3.17096,-0.8259 -5.32838,-3.0803 -5.99044,-6.2596 -0.19582,-0.9403 -0.21994,-5.4865 -0.14445,-27.2073 0.0685,-19.70991 0.0397,-26.68219 -0.11783,-28.55102 -0.90014,-10.67562 -4.28878,-19.33178 -9.8192,-25.08269 l -1.67994,-1.7469 0.56801,-0.0896 c 0.3124,-0.0493 2.10761,-0.29201 3.98933,-0.53931 33.75995,-4.43691 54.95975,-17.26244 66.14535,-40.01681 5.0691,-10.31177 7.9401,-22.33098 8.8669,-37.1209 0.2607,-4.16109 0.2144,-12.74839 -0.086,-15.92738 -1.3526,-14.32028 -6.5413,-26.77029 -15.7354,-37.75648 l -1.8328,-2.18998 0.7,-2.10479 c 1.1105,-3.3393 1.8586,-6.76541 2.4502,-11.22058 0.1345,-1.01286 0.2142,-3.59091 0.2115,-6.84266 0,-4.39431 -0.063,-5.65209 -0.3781,-7.97187 -0.7192,-5.29768 -1.8428,-10.02397 -3.5427,-14.90262 -1.2097,-3.47187 -1.1734,-3.40507 -1.9222,-3.53582 -1.4801,-0.25844 -4.2005,-0.3108 -6.1267,-0.1179 -10.4646,1.04793 -23.83014,6.71704 -38.45247,16.30987 l -2.87431,1.88566 -4.22494,-1.04499 c -14.10615,-3.489 -27.72602,-5.02371 -42.28716,-4.765 -13.39273,0.23796 -24.71795,1.70757 -37.27172,4.8365 l -3.89978,0.97202 -1.18244,-0.77037 c -3.41344,-2.22391 -4.84618,-3.12305 -7.34079,-4.6068 -15.7626,-9.37531 -29.75008,-13.94351 -38.86954,-12.69446 l -0.7218,0.0988 -0.53908,1.39265 c -2.06357,5.33103 -3.57183,11.4161 -4.37327,17.64396 -0.42592,3.30976 -0.42612,11.50128 0,14.71169 0.53608,4.04227 1.26714,7.28544 2.46007,10.91348 l 0.6073,1.84697 -0.53751,0.63349 c -7.86934,9.27472 -12.32525,17.5998 -15.08053,28.17515 -1.5476,5.94011 -2.0589,10.02001 -2.17392,17.34722 -0.3933,25.05091 5.52169,45.51887 17.23699,59.64591 11.93154,14.38783 29.76052,23.04221 55.24929,26.81855 2.211,0.3276 4.48191,0.64365 5.04642,0.70235 2.16444,0.22512 2.11105,0.14467 0.89374,1.34636 -4.69845,4.63817 -8.11353,11.72856 -9.60204,19.93573 -0.22807,1.25748 -0.47896,2.34344 -0.55751,2.41325 -0.5273,0.46862 -5.87602,2.34438 -8.78167,3.07966 -4.30564,1.08954 -5.83573,1.27122 -10.77717,1.27961 -4.74833,0.008 -5.58826,-0.0746 -8.74877,-0.86138 -4.87643,-1.21382 -9.26349,-3.47843 -13.31877,-6.87512 -2.99567,-2.50917 -5.36561,-5.25716 -8.00067,-9.27691 -2.66461,-4.06484 -2.93412,-4.44699 -4.61588,-6.54469 -7.26002,-9.05561 -16.04845,-13.76378 -24.67588,-13.21946 -4.58571,0.28931 -6.84265,1.36718 -6.84265,3.2679 0,1.193 0.69095,2.34649 2.45997,4.10664 1.46539,1.45807 2.82159,2.44589 6.44128,4.69163 4.38833,2.72264 10.83707,11.27232 15.48354,20.52794 0.68486,1.36426 1.56626,3.28875 1.95863,4.27666 1.92953,4.858 4.16143,8.30785 7.47665,11.55658 5.82666,5.7098 13.92464,9.03215 24.85564,10.19745 2.94971,0.31447 11.26913,0.26473 14.88276,-0.089 2.69904,-0.26418 8.92435,-1.11214 10.70665,-1.45838 l 0.69929,-0.13582 0.11313,10.36421 c 0.18509,16.9579 0.14888,23.559 -0.13508,24.6258 -0.82952,3.1166 -3.10172,5.24 -6.33754,5.9224 -1.10873,0.2338 -3.23339,0.3002 -4.44772,0.1391 z"
       id="path4253" /></g></svg>
