<?xml version="1.0" encoding="UTF-8" standalone="no"?>
<!-- Created with Inkscape (http://www.inkscape.org/) -->

<svg
   version="1.1"
   id="svg2"
   width="500"
   height="500"
   viewBox="0 0 500 500"
   xml:space="preserve"
   xmlns="http://www.w3.org/2000/svg"
   xmlns:svg="http://www.w3.org/2000/svg"><defs
     id="defs6" /><g
     id="g8"><path
       style="fill:#111;fill-opacity:1;stroke-width:0.685748"
       d="m 186.50191,424.96867 c -7.4634,-0.3018 -16.7209,-0.9096 -20.5725,-1.3507 -48.6044,-5.567 -79.852597,-34.33949 -87.905097,-80.9408 -2.1209,-12.27405 -2.53,-23.35085 -2.8907,-78.26074 -0.57,-86.79464 0.6091,-105.33921 8.0389,-126.43532 4.5657,-12.96382 11.0201,-23.29219 20.732997,-33.17728 15.4524,-15.726273 34.2496,-24.551233 59.3849,-27.880233 13.9766,-1.8511 46.4977,-2.54773 101.2416,-2.16872 65.097,0.45069 75.5067,1.17098 92.9189,6.42957 15.5267,4.68916 26.8159,11.29197 38.1345,22.304173 16.4063,15.96202 25.0692,34.88325 28.5077,62.26531 0.7006,5.58051 0.9025,24.55602 0.8974,84.34712 -0.012,69.41973 -0.126,78.01387 -1.1969,85.80394 -3.6895,26.83981 -12.4856,45.61389 -28.7372,61.33488 -16.8177,16.2689 -37.2337,24.5091 -67.0926,27.0801 -10.5318,0.9068 -122.3906,1.4198 -141.4619,0.6487 z m 126.6765,-31.56238 c 17.7539,-0.76596 26.8371,-1.92721 35.3254,-4.5163 11.1215,-3.39226 19.0839,-8.30758 26.8174,-16.5544 10.8512,-11.5717 15.7939,-24.46925 17.8047,-46.45927 1.1279,-12.33457 1.6677,-108.4145 0.7474,-133.0353 -0.8566,-22.91489 -1.9354,-31.84211 -5.0119,-41.4714 -3.5782,-11.20048 -7.9217,-18.31876 -15.7516,-25.81523 -12.1583,-11.6405 -26.4551,-16.58497 -52.1619,-18.03987 -35.0904,-1.98598 -135.2656,-1.3591 -152.8566,0.95657 -33.3172,4.38584 -52.563,21.88284 -58.501,53.18501 -2.2524,11.87412 -2.7278,27.26187 -2.7317,88.44495 0,73.54266 0.6056,84.48786 5.5635,99.77648 3.5224,10.86198 7.7274,17.45322 16.3287,25.59515 4.8095,4.55258 7.3202,6.30913 12.9443,9.05611 11.6968,5.71307 22.9735,7.97283 44.2122,8.85971 18.4809,0.77173 109.5009,0.78446 127.2711,0.0177 z m -70.2475,-53.6162 c -15.9249,-1.07697 -32.7435,-7.41288 -46.5202,-17.52519 -4.9941,-3.66574 -14.2226,-12.92697 -18.2349,-18.29979 -4.34,-5.81151 -8.5002,-13.31407 -11.3884,-20.53783 -4.534,-11.33991 -6.2289,-20.52955 -6.2068,-33.65133 0.042,-24.93649 9.4013,-46.88505 27.4372,-64.3434 13.4756,-13.04398 29.2887,-21.04785 47.8273,-24.20788 9.7511,-1.66213 26.9225,-1.04035 35.8872,1.29947 18.0565,4.71283 31.4945,12.59301 44.1461,25.88767 16.1111,16.93004 24.4232,37.92523 24.4232,61.68924 0,25.28063 -9.2445,47.12234 -27.3712,64.66851 -10.2505,9.92229 -20.6778,16.29764 -33.8802,20.71498 -11.768,3.93741 -22.553,5.22303 -36.1193,4.30555 z m 19.4475,-32.43087 c 11.1784,-2.30896 20.7714,-7.5174 28.9379,-15.71153 11.8151,-11.85522 17.4069,-25.11128 17.4345,-41.33037 0.02,-12.19846 -3.0875,-22.53308 -9.8206,-32.65242 -10.9565,-16.46648 -28.6773,-25.8747 -48.6724,-25.84061 -15.5735,0.0265 -28.7611,5.36705 -40.426,16.37121 -17.6102,16.61243 -22.7976,44.11036 -12.5185,66.35811 7.5959,16.44054 23.1288,28.98894 40.4744,32.69788 6.3168,1.35069 18.3186,1.40327 24.5907,0.1078 z m 74.843,-131.11487 c -5.131,-1.74485 -11.3378,-8.19006 -12.9839,-13.48239 -4.1085,-13.20988 4.7592,-26.13001 18.5528,-27.03102 7.0563,-0.46093 11.1938,1.07372 16.087,5.96692 4.8931,4.8932 6.4278,9.03063 5.9669,16.08701 -0.5174,7.91999 -4.4502,13.97149 -11.2383,17.29265 -4.8277,2.36197 -11.4775,2.83554 -16.3845,1.16683 z"
       id="path4304" /></g></svg>
