<?xml version="1.0" encoding="UTF-8" standalone="no"?>
<!-- Created with Inkscape (http://www.inkscape.org/) -->

<svg
   version="1.1"
   id="svg2"
   width="500"
   height="500"
   viewBox="0 0 500 500"
   sodipodi:docname="CC_20180727_210054-removebg-preview.svg"
   inkscape:export-filename="mail.svg"
   inkscape:export-xdpi="96"
   inkscape:export-ydpi="96"
   inkscape:version="1.2.2 (732a01da63, 2022-12-09)"
   xml:space="preserve"
   xmlns:inkscape="http://www.inkscape.org/namespaces/inkscape"
   xmlns:sodipodi="http://sodipodi.sourceforge.net/DTD/sodipodi-0.dtd"
   xmlns="http://www.w3.org/2000/svg"
   xmlns:svg="http://www.w3.org/2000/svg"><defs
     id="defs6" /><sodipodi:namedview
     id="namedview4"
     pagecolor="#ffffff"
     bordercolor="#000000"
     borderopacity="0.25"
     inkscape:showpageshadow="2"
     inkscape:pageopacity="0.0"
     inkscape:pagecheckerboard="0"
     inkscape:deskcolor="#d1d1d1"
     showgrid="false"
     inkscape:zoom="0.21575"
     inkscape:cx="217.84473"
     inkscape:cy="305.90962"
     inkscape:window-width="1920"
     inkscape:window-height="1017"
     inkscape:window-x="-8"
     inkscape:window-y="-8"
     inkscape:window-maximized="1"
     inkscape:current-layer="g8" /><g
     inkscape:groupmode="layer"
     inkscape:label="Image"
     id="g8"><path
       style="fill:#111;fill-opacity:1;stroke-width:0.683252"
       d="m 224.71811,367.86095 v -57.05153 h 25.28031 25.28031 v 57.05153 57.05152 h -25.28031 -25.28031 z m -75.32746,-49.3638 -16.90224,-16.91238 30.61999,-29.72109 30.61998,-29.72108 -42.92316,-0.1759 -42.92317,-0.17591 v -24.24521 -24.24521 l 42.64823,-0.17596 42.64822,-0.17594 -30.34995,-28.92228 -30.34995,-28.92228 16.91013,-17.35735 16.91012,-17.35735 17.72686,18.2663 c 9.74978,10.04647 22.89169,23.49318 29.20427,29.88159 l 11.47741,11.61528 0.005,-42.53243 0.005,-42.532419 h 25.28032 25.2803 l 0.007,42.532419 0.007,42.53243 12.16139,-12.29852 c 6.68876,-6.76421 19.84116,-20.21271 29.22745,-29.8856 l 17.0661,-17.58707 16.8873,17.36134 16.8872,17.36134 -30.3501,28.92231 -30.34988,28.92229 42.64818,0.17595 42.6483,0.17595 v 24.24518 24.24517 l -42.8325,0.17594 -42.83245,0.17595 30.55615,29.69416 30.5563,29.69417 -16.9292,16.9393 -16.9292,16.9393 -41.85214,-41.84862 -41.85278,-41.84861 -41.85277,41.84861 -41.85278,41.84862 z"
       id="path4203" /></g></svg>
