<?xml version="1.0" encoding="UTF-8" standalone="no"?>
<!-- Created with Inkscape (http://www.inkscape.org/) -->

<svg
  version="1.1"
  id="svg2"
  width="500"
  height="500"
  viewBox="0 0 500 500"
  sodipodi:docname="CC_20180727_210054-removebg-preview.svg"
  inkscape:export-filename="instagram.svg"
  inkscape:export-xdpi="96"
  inkscape:export-ydpi="96"
  inkscape:version="1.2.2 (732a01da63, 2022-12-09)"
  xml:space="preserve"
  xmlns:inkscape="http://www.inkscape.org/namespaces/inkscape"
  xmlns:sodipodi="http://sodipodi.sourceforge.net/DTD/sodipodi-0.dtd"
  xmlns="http://www.w3.org/2000/svg"
  xmlns:svg="http://www.w3.org/2000/svg"><defs
     id="defs6" /><sodipodi:namedview
     id="namedview4"
     pagecolor="#ffffff"
     bordercolor="#000000"
     borderopacity="0.25"
     inkscape:showpageshadow="2"
     inkscape:pageopacity="0.0"
     inkscape:pagecheckerboard="0"
     inkscape:deskcolor="#d1d1d1"
     showgrid="false"
     inkscape:zoom="0.21575"
     inkscape:cx="217.84473"
     inkscape:cy="305.90962"
     inkscape:window-width="1920"
     inkscape:window-height="1017"
     inkscape:window-x="-8"
     inkscape:window-y="-8"
     inkscape:window-maximized="1"
     inkscape:current-layer="g8" /><g
     inkscape:groupmode="layer"
     inkscape:label="Image"
     id="g8"><path
       style="fill:#111;fill-opacity:1;stroke-width:0.684474"
       d="m 235.42399,424.75128 c -43.0517,-4.4678 -80.2018,-21.7966 -109.1879,-50.93113 C 72.4339,319.74219 59.6451,237.91474 94.3819,170.00465 c 21.73669,-42.49473 61.09219,-74.833369 107.23309,-88.114129 73.351,-21.11264 151.8464,7.56128 193.9916,70.863889 15.1564,22.76542 24.1537,46.42339 28.2352,74.24216 0.8565,5.83656 1.1161,13.22881 1.1434,32.53584 0.033,23.69505 -0.043,25.29395 -1.4989,31.00759 -6.021,23.64467 -24.728,41.5528 -47.9917,45.94262 -22.1429,4.17829 -45.0226,-4.05082 -58.9338,-21.19646 l -3.6021,-4.43961 -4.5695,4.31065 c -15.0806,14.22625 -36.4804,22.40524 -58.6222,22.40524 -23.3555,0 -44.7164,-8.82297 -61.2745,-25.30896 -23.576,-23.47335 -31.8576,-57.8177 -21.5382,-89.32014 4.501,-13.74033 10.9549,-24.14443 21.4952,-34.65125 10.8338,-10.79948 20.7723,-16.96427 34.7076,-21.52914 24.9216,-8.1637 52.2134,-4.60446 74.4043,9.7033 2.5528,1.64599 4.7859,2.99268 4.9625,2.99268 0.1764,0 0.3208,-3.85016 0.3208,-8.55592 v -8.55593 h 17.4542 17.4539 v 58.88635 c 0,57.71092 0.028,58.97022 1.415,63.08601 2.604,7.73009 7.0041,12.52096 14.7826,16.09556 3.3485,1.53882 4.9351,1.83376 9.8126,1.82397 11.5702,-0.0233 20.5113,-6.00296 24.7857,-16.57635 1.5171,-3.75278 1.5667,-4.55369 1.5667,-25.43573 0,-23.53693 -0.5583,-29.89178 -3.7801,-43.05127 -7.8276,-31.96897 -26.2034,-59.84173 -52.2654,-79.27786 -54.556,-40.685649 -129.5335,-36.62889 -179.5176,9.71303 -39.8921,36.98542 -54.56349,94.19816 -37.4735,146.134 23.0408,70.02057 96.4441,110.33939 167.6536,92.08861 8.4894,-2.17582 18.8323,-5.84077 24.4165,-8.65196 1.3968,-0.70315 2.8584,-1.27842 3.2482,-1.27842 0.669,0 15.7733,29.41316 15.7733,30.71596 0,0.7881 -14.1833,6.8485 -22.5877,9.6516 -8.3759,2.7936 -21.0092,5.8244 -30.1169,7.2254 -6.9071,1.0625 -33.8056,1.9124 -40.0418,1.2653 z m 22.35,-122.84422 c 11.4245,-1.77256 21.1755,-6.72992 29.3845,-14.93901 20.7021,-20.70208 20.7021,-53.33446 0,-74.03654 -23.494,-23.49398 -61.8689,-19.78719 -80.7485,7.7998 -6.8204,9.9663 -10.0881,24.04743 -8.3456,35.96431 1.7653,12.07279 6.622,21.83681 15.0576,30.27243 12.0282,12.02829 28.308,17.4749 44.652,14.93901 z"
       id="mail" /></g></svg>