<?xml version="1.0" encoding="UTF-8" standalone="no"?>
<!-- Created with Inkscape (http://www.inkscape.org/) -->

<svg
   version="1.1"
   id="svg2"
   width="500"
   height="500"
   viewBox="0 0 500 500"
   sodipodi:docname="CC_20180727_210054-removebg-preview.svg"
   inkscape:export-filename="github.svg"
   inkscape:export-xdpi="96"
   inkscape:export-ydpi="96"
   inkscape:version="1.2.2 (732a01da63, 2022-12-09)"
   xml:space="preserve"
   xmlns:inkscape="http://www.inkscape.org/namespaces/inkscape"
   xmlns:sodipodi="http://sodipodi.sourceforge.net/DTD/sodipodi-0.dtd"
   xmlns="http://www.w3.org/2000/svg"
   xmlns:svg="http://www.w3.org/2000/svg"><defs
     id="defs6" /><sodipodi:namedview
     id="namedview4"
     pagecolor="#ffffff"
     bordercolor="#000000"
     borderopacity="0.25"
     inkscape:showpageshadow="2"
     inkscape:pageopacity="0.0"
     inkscape:pagecheckerboard="0"
     inkscape:deskcolor="#d1d1d1"
     showgrid="false"
     inkscape:zoom="0.21575"
     inkscape:cx="217.84473"
     inkscape:cy="305.90962"
     inkscape:window-width="1920"
     inkscape:window-height="1017"
     inkscape:window-x="-8"
     inkscape:window-y="-8"
     inkscape:window-maximized="1"
     inkscape:current-layer="g8" /><g
     inkscape:groupmode="layer"
     inkscape:label="Image"
     id="g8"><path
       style="fill:#111;fill-opacity:1;stroke-width:0.730936"
       d="m 75.911416,424.08467 c 0.1798,-0.5025 5.701,-20.5752 12.2697,-44.606 l 11.942904,-43.69228 -4.870404,-10.03137 c -12.0583,-24.8358 -17.12,-45.23139 -17.8537,-71.9379 -0.6048,-22.0216 1.8136,-39.36508 8.1852,-58.69756 9.3372,-28.33107 23.203904,-50.40977 44.851604,-71.41392 26.0705,-25.295475 57.3944,-40.900675 94.4149,-47.036545 9.8333,-1.62982 30.7109,-2.17846 42.1119,-1.10664 65.456,6.15351 121.202,48.109905 145.7407,109.689495 3.841,9.63864 7.4462,22.71272 9.608,34.84135 2.2541,12.64754 2.4681,42.09892 0.3974,54.69805 -12.855,78.21816 -74.1974,137.30442 -152.1748,146.57832 -9.3412,1.1109 -30.0277,1.1073 -39.4704,-0.012 -19.6813,-2.3223 -45.3507,-10.0695 -59.4209,-17.9335 -1.7919,-1.0018 -3.6502,-1.8212 -4.1295,-1.8212 -0.4795,0 -20.9134,5.2617 -45.4087,11.6926 -24.495304,6.431 -44.983404,11.6937 -45.528904,11.695 -0.5455,0 -0.8447,-0.4088 -0.665,-0.9113 z m 194.911404,-32.4177 c 61.0307,-8.07789 110.669,-55.78609 122.208,-117.45584 1.9366,-10.35027 2.6696,-30.91606 1.4668,-41.14567 -2.8119,-23.91123 -10.6243,-45.37069 -23.5159,-64.5926 -33.0287,-49.2482 -91.0074,-73.055275 -149.4194,-61.35422 -48.7034,9.75624 -90.7538,46.58445 -107.0058,93.71689 -14.2409,41.30034 -9.5989,86.14707 12.6866,122.56295 2.3371,3.81912 4.2282,7.43725 4.2023,8.04027 -0.026,0.60303 -3.1972,12.5798 -7.0472,26.61506 -3.8502,14.03528 -6.8741,25.64476 -6.72,25.79888 0.1541,0.15412 8.2964,-1.8305 18.0939,-4.41025 9.7973,-2.57977 21.966,-5.75808 27.0413,-7.06295 l 9.228,-2.37248 5.3738,3.13836 c 28.433,16.60581 60.2366,22.9121 93.4076,18.5216 z m 14.5491,-60.5592 c -6.4014,-1.34027 -18.2432,-5.41024 -29.1773,-10.02798 -27.7057,-11.70097 -53.5992,-34.35607 -76.2965,-66.75457 -6.5507,-9.35044 -11.7677,-19.36029 -14.6669,-28.14097 -1.8398,-5.57248 -2.0561,-7.26778 -2.0975,-16.44601 -0.05,-11.13762 1.1572,-16.62132 5.2305,-23.75535 2.9868,-5.2311 9.2096,-12.6127 12.6374,-14.99062 2.9934,-2.07663 3.5819,-2.19849 11.7278,-2.4285 11.8593,-0.33487 11.0268,-1.24753 21.1798,23.22286 4.4102,10.62931 8.0186,19.93764 8.0186,20.68518 0,2.20803 -2.0375,5.56068 -8.5109,14.00446 -3.3593,4.38176 -6.1078,8.68034 -6.1078,9.55239 0,3.69615 11.1118,19.31412 20.4923,28.80234 10.482,10.60237 20.9254,17.73637 36.2338,24.75151 8.8387,4.05037 9.2545,4.02102 13.928,-0.98302 2.212,-2.36828 6.3494,-7.35539 9.1944,-11.08242 5.7179,-7.49056 6.994,-8.20803 12.1479,-6.82961 4.3982,1.17634 37.5037,17.34694 38.6582,18.88283 1.9874,2.64427 0.3115,15.77425 -2.8882,22.62762 -2.9059,6.22425 -14.0483,14.49679 -23.9729,17.79861 -6.1238,2.03729 -18.7113,2.58092 -25.7307,1.11125 z"
       id="path4302" /></g></svg>
